<svg xmlns="http://www.w3.org/2000/svg" width="640" height="800" viewBox="0 0 640 800">
  <defs>
    <style>
      .bg { fill: #0d1117; }
      .text { font-family: Arial, sans-serif; font-size: 13px; fill: #c9d1d9; text-anchor: middle; dominant-baseline: middle; }
      .bold { font-weight: bold; }
      .on { fill: #ff4444; font-weight: bold; }
      .grid-lines { stroke: #30363d; stroke-width: 2; fill: none; }
      .head-bg { fill: #161b22; }
      .diag-shape { fill: #21262d; stroke: #8b949e; stroke-width: 2; }
      .diag-text { font-family: Arial, sans-serif; font-size: 15px; font-weight: bold; fill: #c9d1d9; text-anchor: middle; dominant-baseline: middle;}
    </style>
  </defs>

  <rect width="100%" height="100%" class="bg" />

  <g transform="translate(260, 10)">
    <rect x="30" y="20" width="60" height="8" class="diag-shape"/> 
    <text x="60" y="10" class="diag-text">a</text>
    
    <rect x="22" y="28" width="8" height="54" class="diag-shape"/> 
    <text x="12" y="55" class="diag-text">f</text>
    
    <rect x="90" y="28" width="8" height="54" class="diag-shape"/> 
    <text x="110" y="55" class="diag-text">b</text>
    
    <rect x="30" y="82" width="60" height="8" class="diag-shape"/> 
    <text x="60" y="100" class="diag-text">g</text>
    
    <rect x="22" y="90" width="8" height="54" class="diag-shape"/> 
    <text x="12" y="117" class="diag-text">e</text>
    
    <rect x="90" y="90" width="8" height="54" class="diag-shape"/> 
    <text x="110" y="117" class="diag-text">c</text>
    
    <rect x="30" y="144" width="60" height="8" class="diag-shape"/> 
    <text x="60" y="165" class="diag-text">d</text>
    
    <circle cx="110" cy="148" r="5" class="diag-shape"/> 
    <text x="110" y="165" class="diag-text">dp</text>
  </g>

  <rect x="60" y="200" width="520" height="32" class="head-bg" />

  <path class="grid-lines" d="M60 200 L580 200 M60 232 L580 232 M60 264 L580 264 M60 296 L580 296 M60 328 L580 328 M60 360 L580 360 M60 392 L580 392 M60 424 L580 424 M60 456 L580 456 M60 488 L580 488 M60 520 L580 520 M60 552 L580 552 M60 584 L580 584 M60 616 L580 616 M60 648 L580 648 M60 680 L580 680 M60 712 L580 712 M60 744 L580 744 M60 776 L580 776" />
  
  <path class="grid-lines" d="M60 200 L60 776 M140 200 L140 776 M240 200 L240 776 M280 200 L280 776 M320 200 L320 776 M360 200 L360 776 M400 200 L400 776 M440 200 L440 776 M480 200 L480 776 M520 200 L520 776 M580 200 L580 776" />

  <g transform="translate(0, 200)">
    <text x="100" y="17" class="text bold">Znak</text>
    <text x="190" y="17" class="text bold">Vstup (bin)</text>
    <text x="260" y="17" class="text bold">a</text>
    <text x="300" y="17" class="text bold">b</text>
    <text x="340" y="17" class="text bold">c</text>
    <text x="380" y="17" class="text bold">d</text>
    <text x="420" y="17" class="text bold">e</text>
    <text x="460" y="17" class="text bold">f</text>
    <text x="500" y="17" class="text bold">g</text>
    <text x="550" y="17" class="text bold">HEX</text>
  </g>

  <g transform="translate(0, 232)">
    <text x="100" y="17" class="text bold">0</text>
    <text x="190" y="17" class="text">00000</text>
    <text x="260" y="17" class="text on">0</text>
    <text x="300" y="17" class="text on">0</text>
    <text x="340" y="17" class="text on">0</text>
    <text x="380" y="17" class="text on">0</text>
    <text x="420" y="17" class="text on">0</text>
    <text x="460" y="17" class="text on">0</text>
    <text x="500" y="17" class="text">1</text>
    <text x="550" y="17" class="text">01</text>
  </g>

  <g transform="translate(0, 264)">
    <text x="100" y="17" class="text bold">1</text>
    <text x="190" y="17" class="text">00001</text>
    <text x="260" y="17" class="text">1</text>
    <text x="300" y="17" class="text on">0</text>
    <text x="340" y="17" class="text on">0</text>
    <text x="380" y="17" class="text">1</text>
    <text x="420" y="17" class="text">1</text>
    <text x="460" y="17" class="text">1</text>
    <text x="500" y="17" class="text">1</text>
    <text x="550" y="17" class="text">4F</text>
  </g>

  <g transform="translate(0, 296)">
    <text x="100" y="17" class="text bold">2</text>
    <text x="190" y="17" class="text">00010</text>
    <text x="260" y="17" class="text on">0</text>
    <text x="300" y="17" class="text on">0</text>
    <text x="340" y="17" class="text">1</text>
    <text x="380" y="17" class="text on">0</text>
    <text x="420" y="17" class="text on">0</text>
    <text x="460" y="17" class="text">1</text>
    <text x="500" y="17" class="text on">0</text>
    <text x="550" y="17" class="text">12</text>
  </g>

  <g transform="translate(0, 328)">
    <text x="100" y="17" class="text bold">3</text>
    <text x="190" y="17" class="text">00011</text>
    <text x="260" y="17" class="text on">0</text>
    <text x="300" y="17" class="text on">0</text>
    <text x="340" y="17" class="text on">0</text>
    <text x="380" y="17" class="text on">0</text>
    <text x="420" y="17" class="text">1</text>
    <text x="460" y="17" class="text">1</text>
    <text x="500" y="17" class="text on">0</text>
    <text x="550" y="17" class="text">06</text>
  </g>

  <g transform="translate(0, 360)">
    <text x="100" y="17" class="text bold">4</text>
    <text x="190" y="17" class="text">00100</text>
    <text x="260" y="17" class="text">1</text>
    <text x="300" y="17" class="text on">0</text>
    <text x="340" y="17" class="text on">0</text>
    <text x="380" y="17" class="text">1</text>
    <text x="420" y="17" class="text">1</text>
    <text x="460" y="17" class="text on">0</text>
    <text x="500" y="17" class="text on">0</text>
    <text x="550" y="17" class="text">4C</text>
  </g>

  <g transform="translate(0, 392)">
    <text x="100" y="17" class="text bold">5</text>
    <text x="190" y="17" class="text">00101</text>
    <text x="260" y="17" class="text on">0</text>
    <text x="300" y="17" class="text">1</text>
    <text x="340" y="17" class="text on">0</text>
    <text x="380" y="17" class="text on">0</text>
    <text x="420" y="17" class="text">1</text>
    <text x="460" y="17" class="text on">0</text>
    <text x="500" y="17" class="text on">0</text>
    <text x="550" y="17" class="text">24</text>
  </g>

  <g transform="translate(0, 424)">
    <text x="100" y="17" class="text bold">6</text>
    <text x="190" y="17" class="text">00110</text>
    <text x="260" y="17" class="text on">0</text>
    <text x="300" y="17" class="text">1</text>
    <text x="340" y="17" class="text on">0</text>
    <text x="380" y="17" class="text on">0</text>
    <text x="420" y="17" class="text on">0</text>
    <text x="460" y="17" class="text on">0</text>
    <text x="500" y="17" class="text on">0</text>
    <text x="550" y="17" class="text">20</text>
  </g>

  <g transform="translate(0, 456)">
    <text x="100" y="17" class="text bold">7</text>
    <text x="190" y="17" class="text">00111</text>
    <text x="260" y="17" class="text on">0</text>
    <text x="300" y="17" class="text on">0</text>
    <text x="340" y="17" class="text on">0</text>
    <text x="380" y="17" class="text">1</text>
    <text x="420" y="17" class="text">1</text>
    <text x="460" y="17" class="text">1</text>
    <text x="500" y="17" class="text">1</text>
    <text x="550" y="17" class="text">0F</text>
  </g>

  <g transform="translate(0, 488)">
    <text x="100" y="17" class="text bold">8</text>
    <text x="190" y="17" class="text">01000</text>
    <text x="260" y="17" class="text on">0</text>
    <text x="300" y="17" class="text on">0</text>
    <text x="340" y="17" class="text on">0</text>
    <text x="380" y="17" class="text on">0</text>
    <text x="420" y="17" class="text on">0</text>
    <text x="460" y="17" class="text on">0</text>
    <text x="500" y="17" class="text on">0</text>
    <text x="550" y="17" class="text">00</text>
  </g>

  <g transform="translate(0, 520)">
    <text x="100" y="17" class="text bold">9</text>
    <text x="190" y="17" class="text">01001</text>
    <text x="260" y="17" class="text on">0</text>
    <text x="300" y="17" class="text on">0</text>
    <text x="340" y="17" class="text on">0</text>
    <text x="380" y="17" class="text on">0</text>
    <text x="420" y="17" class="text">1</text>
    <text x="460" y="17" class="text on">0</text>
    <text x="500" y="17" class="text on">0</text>
    <text x="550" y="17" class="text">04</text>
  </g>

  <g transform="translate(0, 552)">
    <text x="100" y="17" class="text bold">A</text>
    <text x="190" y="17" class="text">01010</text>
    <text x="260" y="17" class="text on">0</text>
    <text x="300" y="17" class="text on">0</text>
    <text x="340" y="17" class="text on">0</text>
    <text x="380" y="17" class="text">1</text>
    <text x="420" y="17" class="text on">0</text>
    <text x="460" y="17" class="text on">0</text>
    <text x="500" y="17" class="text on">0</text>
    <text x="550" y="17" class="text">08</text>
  </g>

  <g transform="translate(0, 584)">
    <text x="100" y="17" class="text bold">L</text>
    <text x="190" y="17" class="text">01011</text>
    <text x="260" y="17" class="text">1</text>
    <text x="300" y="17" class="text">1</text>
    <text x="340" y="17" class="text">1</text>
    <text x="380" y="17" class="text on">0</text>
    <text x="420" y="17" class="text on">0</text>
    <text x="460" y="17" class="text on">0</text>
    <text x="500" y="17" class="text">1</text>
    <text x="550" y="17" class="text">71</text>
  </g>

  <g transform="translate(0, 616)">
    <text x="100" y="17" class="text bold">_</text>
    <text x="190" y="17" class="text">01100</text>
    <text x="260" y="17" class="text">1</text>
    <text x="300" y="17" class="text">1</text>
    <text x="340" y="17" class="text">1</text>
    <text x="380" y="17" class="text on">0</text>
    <text x="420" y="17" class="text">1</text>
    <text x="460" y="17" class="text">1</text>
    <text x="500" y="17" class="text">1</text>
    <text x="550" y="17" class="text">77</text>
  </g>

  <g transform="translate(0, 648)">
    <text x="100" y="17" class="text bold">H</text>
    <text x="190" y="17" class="text">01101</text>
    <text x="260" y="17" class="text">1</text>
    <text x="300" y="17" class="text on">0</text>
    <text x="340" y="17" class="text on">0</text>
    <text x="380" y="17" class="text">1</text>
    <text x="420" y="17" class="text on">0</text>
    <text x="460" y="17" class="text on">0</text>
    <text x="500" y="17" class="text on">0</text>
    <text x="550" y="17" class="text">48</text>
  </g>

  <g transform="translate(0, 680)">
    <text x="100" y="17" class="text bold">o</text>
    <text x="190" y="17" class="text">01110</text>
    <text x="260" y="17" class="text">1</text>
    <text x="300" y="17" class="text">1</text>
    <text x="340" y="17" class="text on">0</text>
    <text x="380" y="17" class="text on">0</text>
    <text x="420" y="17" class="text on">0</text>
    <text x="460" y="17" class="text">1</text>
    <text x="500" y="17" class="text on">0</text>
    <text x="550" y="17" class="text">62</text>
  </g>

  <g transform="translate(0, 712)">
    <text x="100" y="17" class="text bold">d</text>
    <text x="190" y="17" class="text">01111</text>
    <text x="260" y="17" class="text">1</text>
    <text x="300" y="17" class="text on">0</text>
    <text x="340" y="17" class="text on">0</text>
    <text x="380" y="17" class="text on">0</text>
    <text x="420" y="17" class="text on">0</text>
    <text x="460" y="17" class="text">1</text>
    <text x="500" y="17" class="text on">0</text>
    <text x="550" y="17" class="text">42</text>
  </g>

  <g transform="translate(0, 744)">
    <text x="100" y="17" class="text bold">Zhasnuto</text>
    <text x="190" y="17" class="text">10000</text>
    <text x="260" y="17" class="text">1</text>
    <text x="300" y="17" class="text">1</text>
    <text x="340" y="17" class="text">1</text>
    <text x="380" y="17" class="text">1</text>
    <text x="420" y="17" class="text">1</text>
    <text x="460" y="17" class="text">1</text>
    <text x="500" y="17" class="text">1</text>
    <text x="550" y="17" class="text">7F</text>
  </g>
</svg>
